<svg width="758pt" height="592pt" viewBox="0.00 0.00 758.00 592.00" xmlns="http://www.w3.org/2000/svg" xmlns:xlink="http://www.w3.org/1999/xlink">
<g id="graph0" class="graph" transform="scale(1 1) rotate(0) translate(4 588)">
<polygon fill="white" stroke="none" points="-4,4 -4,-588 754.33,-588 754.33,4 -4,4"/>
<g id="clust1" class="cluster">
<title>cluster__uls</title>
<polygon fill="none" stroke="black" stroke-dasharray="1,5" points="8,-8 8,-576 742.33,-576 742.33,-8 8,-8"/>
<text xml:space="preserve" text-anchor="middle" x="375.16" y="-559.4" font-family="Times,serif" font-size="14.00">Uls</text>
</g>
<g id="clust2" class="cluster">
<title>cluster__attack_vector</title>
<polygon fill="none" stroke="black" stroke-dasharray="1,5" points="602.12,-358 602.12,-475 734.33,-475 734.33,-358 602.12,-358"/>
<text xml:space="preserve" text-anchor="middle" x="668.22" y="-458.4" font-family="Times,serif" font-size="14.00">Uls::AttackVector</text>
</g>
<g id="clust3" class="cluster">
<title>cluster__chunk</title>
<polygon fill="none" stroke="black" stroke-dasharray="1,5" points="260.52,-16 260.52,-225 582.12,-225 582.12,-16 260.52,-16"/>
<text xml:space="preserve" text-anchor="middle" x="421.32" y="-208.4" font-family="Times,serif" font-size="14.00">Uls::Chunk</text>
</g>
<g id="clust4" class="cluster">
<title>cluster__chunker</title>
<polygon fill="none" stroke="black" stroke-dasharray="1,5" points="318.67,-233 318.67,-350 523.98,-350 523.98,-233 318.67,-233"/>
<text xml:space="preserve" text-anchor="middle" x="421.32" y="-333.4" font-family="Times,serif" font-size="14.00">Uls::Chunker</text>
</g>
<g id="clust5" class="cluster">
<title>cluster__player</title>
<polygon fill="none" stroke="black" stroke-dasharray="1,5" points="278.64,-358 278.64,-543 564,-543 564,-358 278.64,-358"/>
<text xml:space="preserve" text-anchor="middle" x="421.32" y="-526.4" font-family="Times,serif" font-size="14.00">Uls::Player</text>
</g>
<!-- uls__seq -->
<g id="node1" class="node">
<title>uls__seq</title>
<polygon fill="#e0ffe0" stroke="none" points="24,-404.2 24,-427 49.45,-427 49.45,-404.2 24,-404.2"/>
<polygon fill="none" stroke="black" points="24,-404.2 24,-427 49.45,-427 49.45,-404.2 24,-404.2"/>
<text xml:space="preserve" text-anchor="start" x="27" y="-411.4" font-family="Times,serif" font-size="14.00">pos</text>
<polygon fill="#e0ffe0" stroke="none" points="49.45,-404.2 49.45,-427 77.21,-427 77.21,-404.2 49.45,-404.2"/>
<polygon fill="none" stroke="black" points="49.45,-404.2 49.45,-427 77.21,-427 77.21,-404.2 49.45,-404.2"/>
<text xml:space="preserve" text-anchor="start" x="52.45" y="-411.4" font-family="Times,serif" font-size="14.00">size</text>
<polygon fill="#e0ffe0" stroke="none" points="77.21,-404.2 77.21,-427 146.21,-427 146.21,-404.2 77.21,-404.2"/>
<polygon fill="none" stroke="black" points="77.21,-404.2 77.21,-427 146.21,-427 146.21,-404.2 77.21,-404.2"/>
<text xml:space="preserve" text-anchor="start" x="99.66" y="-411.4" font-family="Times,serif" font-size="14.00">type</text>
<polygon fill="#e0ffe0" stroke="none" points="146.21,-404.2 146.21,-427 224.52,-427 224.52,-404.2 146.21,-404.2"/>
<polygon fill="none" stroke="black" points="146.21,-404.2 146.21,-427 224.52,-427 224.52,-404.2 146.21,-404.2"/>
<text xml:space="preserve" text-anchor="start" x="179.92" y="-411.4" font-family="Times,serif" font-size="14.00">id</text>
<polygon fill="none" stroke="black" points="24,-381.4 24,-404.2 49.45,-404.2 49.45,-381.4 24,-381.4"/>
<text xml:space="preserve" text-anchor="start" x="33.22" y="-388.6" font-family="Times,serif" font-size="14.00">0</text>
<polygon fill="none" stroke="black" points="49.45,-381.4 49.45,-404.2 77.21,-404.2 77.21,-381.4 49.45,-381.4"/>
<text xml:space="preserve" text-anchor="start" x="59.83" y="-388.6" font-family="Times,serif" font-size="14.00">8</text>
<polygon fill="none" stroke="black" points="77.21,-381.4 77.21,-404.2 146.21,-404.2 146.21,-381.4 77.21,-381.4"/>
<text xml:space="preserve" text-anchor="start" x="80.21" y="-388.6" font-family="Times,serif" font-size="14.00">'ULS_v1.0'</text>
<polygon fill="none" stroke="black" points="146.21,-381.4 146.21,-404.2 224.52,-404.2 224.52,-381.4 146.21,-381.4"/>
<text xml:space="preserve" text-anchor="start" x="168.26" y="-388.6" font-family="Times,serif" font-size="14.00">magic</text>
<polygon fill="none" stroke="black" points="24,-358.6 24,-381.4 49.45,-381.4 49.45,-358.6 24,-358.6"/>
<text xml:space="preserve" text-anchor="start" x="33.22" y="-365.8" font-family="Times,serif" font-size="14.00">8</text>
<polygon fill="none" stroke="black" points="49.45,-358.6 49.45,-381.4 77.21,-381.4 77.21,-358.6 49.45,-358.6"/>
<text xml:space="preserve" text-anchor="start" x="59.83" y="-365.8" font-family="Times,serif" font-size="14.00">8</text>
<polygon fill="none" stroke="black" points="77.21,-358.6 77.21,-381.4 146.21,-381.4 146.21,-358.6 77.21,-358.6"/>
<text xml:space="preserve" text-anchor="start" x="99.66" y="-365.8" font-family="Times,serif" font-size="14.00">u8le</text>
<polygon fill="none" stroke="black" points="146.21,-358.6 146.21,-381.4 224.52,-381.4 224.52,-358.6 146.21,-358.6"/>
<text xml:space="preserve" text-anchor="start" x="155.04" y="-365.8" font-family="Times,serif" font-size="14.00">turn_count</text>
<polygon fill="none" stroke="black" points="24,-335.8 24,-358.6 49.45,-358.6 49.45,-335.8 24,-335.8"/>
<text xml:space="preserve" text-anchor="start" x="29.72" y="-343" font-family="Times,serif" font-size="14.00">16</text>
<polygon fill="none" stroke="black" points="49.45,-335.8 49.45,-358.6 77.21,-358.6 77.21,-335.8 49.45,-335.8"/>
<text xml:space="preserve" text-anchor="start" x="59.83" y="-343" font-family="Times,serif" font-size="14.00">1</text>
<polygon fill="none" stroke="black" points="77.21,-335.8 77.21,-358.6 146.21,-358.6 146.21,-335.8 77.21,-335.8"/>
<text xml:space="preserve" text-anchor="start" x="104.71" y="-343" font-family="Times,serif" font-size="14.00">u1</text>
<polygon fill="none" stroke="black" points="146.21,-335.8 146.21,-358.6 224.52,-358.6 224.52,-335.8 146.21,-335.8"/>
<text xml:space="preserve" text-anchor="start" x="149.21" y="-343" font-family="Times,serif" font-size="14.00">num_players</text>
<polygon fill="none" stroke="black" points="24,-313 24,-335.8 49.45,-335.8 49.45,-313 24,-313"/>
<text xml:space="preserve" text-anchor="start" x="29.72" y="-320.2" font-family="Times,serif" font-size="14.00">17</text>
<polygon fill="none" stroke="black" points="49.45,-313 49.45,-335.8 77.21,-335.8 77.21,-313 49.45,-313"/>
<text xml:space="preserve" text-anchor="start" x="58.08" y="-320.2" font-family="Times,serif" font-size="14.00">...</text>
<polygon fill="none" stroke="black" points="77.21,-313 77.21,-335.8 146.21,-335.8 146.21,-313 77.21,-313"/>
<text xml:space="preserve" text-anchor="start" x="93.83" y="-320.2" font-family="Times,serif" font-size="14.00">Player</text>
<polygon fill="none" stroke="black" points="146.21,-313 146.21,-335.8 224.52,-335.8 224.52,-313 146.21,-313"/>
<text xml:space="preserve" text-anchor="start" x="165.15" y="-320.2" font-family="Times,serif" font-size="14.00">players</text>
<polygon fill="none" stroke="black" points="24,-290.2 24,-313 224.52,-313 224.52,-290.2 24,-290.2"/>
<text xml:space="preserve" text-anchor="start" x="52.34" y="-297.4" font-family="Times,serif" font-size="14.00">repeat num_players times</text>
<polygon fill="none" stroke="black" points="24,-267.4 24,-290.2 49.45,-290.2 49.45,-267.4 24,-267.4"/>
<text xml:space="preserve" text-anchor="start" x="31.47" y="-274.6" font-family="Times,serif" font-size="14.00">...</text>
<polygon fill="none" stroke="black" points="49.45,-267.4 49.45,-290.2 77.21,-290.2 77.21,-267.4 49.45,-267.4"/>
<text xml:space="preserve" text-anchor="start" x="59.83" y="-274.6" font-family="Times,serif" font-size="14.00">4</text>
<polygon fill="none" stroke="black" points="77.21,-267.4 77.21,-290.2 146.21,-290.2 146.21,-267.4 77.21,-267.4"/>
<text xml:space="preserve" text-anchor="start" x="87.6" y="-274.6" font-family="Times,serif" font-size="14.00">Chunker</text>
<polygon fill="none" stroke="black" points="146.21,-267.4 146.21,-290.2 224.52,-290.2 224.52,-267.4 146.21,-267.4"/>
<text xml:space="preserve" text-anchor="start" x="162.82" y="-274.6" font-family="Times,serif" font-size="14.00">chunker</text>
<polygon fill="none" stroke="black" points="24,-244.6 24,-267.4 49.45,-267.4 49.45,-244.6 24,-244.6"/>
<text xml:space="preserve" text-anchor="start" x="31.47" y="-251.8" font-family="Times,serif" font-size="14.00">...</text>
<polygon fill="none" stroke="black" points="49.45,-244.6 49.45,-267.4 77.21,-267.4 77.21,-244.6 49.45,-244.6"/>
<text xml:space="preserve" text-anchor="start" x="59.83" y="-251.8" font-family="Times,serif" font-size="14.00">4</text>
<polygon fill="none" stroke="black" points="77.21,-244.6 77.21,-267.4 146.21,-267.4 146.21,-244.6 77.21,-244.6"/>
<text xml:space="preserve" text-anchor="start" x="99.66" y="-251.8" font-family="Times,serif" font-size="14.00">u4le</text>
<polygon fill="none" stroke="black" points="146.21,-244.6 146.21,-267.4 224.52,-267.4 224.52,-244.6 146.21,-244.6"/>
<text xml:space="preserve" text-anchor="start" x="149.59" y="-251.8" font-family="Times,serif" font-size="14.00">num_chunks</text>
<polygon fill="none" stroke="black" points="24,-221.8 24,-244.6 49.45,-244.6 49.45,-221.8 24,-221.8"/>
<text xml:space="preserve" text-anchor="start" x="31.47" y="-229" font-family="Times,serif" font-size="14.00">...</text>
<polygon fill="none" stroke="black" points="49.45,-221.8 49.45,-244.6 77.21,-244.6 77.21,-221.8 49.45,-221.8"/>
<text xml:space="preserve" text-anchor="start" x="58.08" y="-229" font-family="Times,serif" font-size="14.00">...</text>
<polygon fill="none" stroke="black" points="77.21,-221.8 77.21,-244.6 146.21,-244.6 146.21,-221.8 77.21,-221.8"/>
<text xml:space="preserve" text-anchor="start" x="93.04" y="-229" font-family="Times,serif" font-size="14.00">Chunk</text>
<polygon fill="none" stroke="black" points="146.21,-221.8 146.21,-244.6 224.52,-244.6 224.52,-221.8 146.21,-221.8"/>
<text xml:space="preserve" text-anchor="start" x="165.53" y="-229" font-family="Times,serif" font-size="14.00">chunks</text>
<polygon fill="none" stroke="black" points="24,-199 24,-221.8 224.52,-221.8 224.52,-199 24,-199"/>
<text xml:space="preserve" text-anchor="start" x="52.72" y="-206.2" font-family="Times,serif" font-size="14.00">repeat num_chunks times</text>
</g>
<!-- chunk__seq -->
<g id="node3" class="node">
<title>chunk__seq</title>
<polygon fill="#e0ffe0" stroke="none" points="276.52,-165 276.52,-187.8 301.97,-187.8 301.97,-165 276.52,-165"/>
<polygon fill="none" stroke="black" points="276.52,-165 276.52,-187.8 301.97,-187.8 301.97,-165 276.52,-165"/>
<text xml:space="preserve" text-anchor="start" x="279.52" y="-172.2" font-family="Times,serif" font-size="14.00">pos</text>
<polygon fill="#e0ffe0" stroke="none" points="301.97,-165 301.97,-187.8 356.97,-187.8 356.97,-165 301.97,-165"/>
<polygon fill="none" stroke="black" points="301.97,-165 301.97,-187.8 356.97,-187.8 356.97,-165 301.97,-165"/>
<text xml:space="preserve" text-anchor="start" x="318.59" y="-172.2" font-family="Times,serif" font-size="14.00">size</text>
<polygon fill="#e0ffe0" stroke="none" points="356.97,-165 356.97,-187.8 489.36,-187.8 489.36,-165 356.97,-165"/>
<polygon fill="none" stroke="black" points="356.97,-165 356.97,-187.8 489.36,-187.8 489.36,-165 356.97,-165"/>
<text xml:space="preserve" text-anchor="start" x="411.11" y="-172.2" font-family="Times,serif" font-size="14.00">type</text>
<polygon fill="#e0ffe0" stroke="none" points="489.36,-165 489.36,-187.8 566.12,-187.8 566.12,-165 489.36,-165"/>
<polygon fill="none" stroke="black" points="489.36,-165 489.36,-187.8 566.12,-187.8 566.12,-165 489.36,-165"/>
<text xml:space="preserve" text-anchor="start" x="522.29" y="-172.2" font-family="Times,serif" font-size="14.00">id</text>
<polygon fill="none" stroke="black" points="276.52,-142.2 276.52,-165 301.97,-165 301.97,-142.2 276.52,-142.2"/>
<text xml:space="preserve" text-anchor="start" x="285.75" y="-149.4" font-family="Times,serif" font-size="14.00">0</text>
<polygon fill="none" stroke="black" points="301.97,-142.2 301.97,-165 356.97,-165 356.97,-142.2 301.97,-142.2"/>
<text xml:space="preserve" text-anchor="start" x="325.97" y="-149.4" font-family="Times,serif" font-size="14.00">4</text>
<polygon fill="none" stroke="black" points="356.97,-142.2 356.97,-165 489.36,-165 489.36,-142.2 356.97,-142.2"/>
<text xml:space="preserve" text-anchor="start" x="411.88" y="-149.4" font-family="Times,serif" font-size="14.00">s4le</text>
<polygon fill="none" stroke="black" points="489.36,-142.2 489.36,-165 566.12,-165 566.12,-142.2 489.36,-142.2"/>
<text xml:space="preserve" text-anchor="start" x="504.02" y="-149.4" font-family="Times,serif" font-size="14.00">origin_x</text>
<polygon fill="none" stroke="black" points="276.52,-119.4 276.52,-142.2 301.97,-142.2 301.97,-119.4 276.52,-119.4"/>
<text xml:space="preserve" text-anchor="start" x="285.75" y="-126.6" font-family="Times,serif" font-size="14.00">4</text>
<polygon fill="none" stroke="black" points="301.97,-119.4 301.97,-142.2 356.97,-142.2 356.97,-119.4 301.97,-119.4"/>
<text xml:space="preserve" text-anchor="start" x="325.97" y="-126.6" font-family="Times,serif" font-size="14.00">4</text>
<polygon fill="none" stroke="black" points="356.97,-119.4 356.97,-142.2 489.36,-142.2 489.36,-119.4 356.97,-119.4"/>
<text xml:space="preserve" text-anchor="start" x="411.88" y="-126.6" font-family="Times,serif" font-size="14.00">s4le</text>
<polygon fill="none" stroke="black" points="489.36,-119.4 489.36,-142.2 566.12,-142.2 566.12,-119.4 489.36,-119.4"/>
<text xml:space="preserve" text-anchor="start" x="504.02" y="-126.6" font-family="Times,serif" font-size="14.00">origin_y</text>
<polygon fill="none" stroke="black" points="276.52,-96.6 276.52,-119.4 301.97,-119.4 301.97,-96.6 276.52,-96.6"/>
<text xml:space="preserve" text-anchor="start" x="285.75" y="-103.8" font-family="Times,serif" font-size="14.00">8</text>
<polygon fill="none" stroke="black" points="301.97,-96.6 301.97,-119.4 356.97,-119.4 356.97,-96.6 301.97,-96.6"/>
<text xml:space="preserve" text-anchor="start" x="325.97" y="-103.8" font-family="Times,serif" font-size="14.00">1</text>
<polygon fill="none" stroke="black" points="356.97,-96.6 356.97,-119.4 489.36,-119.4 489.36,-96.6 356.97,-96.6"/>
<text xml:space="preserve" text-anchor="start" x="362.7" y="-103.8" font-family="Times,serif" font-size="14.00">u1→ChunkTransform</text>
<polygon fill="none" stroke="black" points="489.36,-96.6 489.36,-119.4 566.12,-119.4 566.12,-96.6 489.36,-96.6"/>
<text xml:space="preserve" text-anchor="start" x="500.52" y="-103.8" font-family="Times,serif" font-size="14.00">transform</text>
<polygon fill="none" stroke="black" points="276.52,-73.8 276.52,-96.6 301.97,-96.6 301.97,-73.8 276.52,-73.8"/>
<text xml:space="preserve" text-anchor="start" x="285.75" y="-81" font-family="Times,serif" font-size="14.00">9</text>
<polygon fill="none" stroke="black" points="301.97,-73.8 301.97,-96.6 356.97,-96.6 356.97,-73.8 301.97,-73.8"/>
<text xml:space="preserve" text-anchor="start" x="325.97" y="-81" font-family="Times,serif" font-size="14.00">1</text>
<polygon fill="none" stroke="black" points="356.97,-73.8 356.97,-96.6 489.36,-96.6 489.36,-73.8 356.97,-73.8"/>
<text xml:space="preserve" text-anchor="start" x="359.97" y="-81" font-family="Times,serif" font-size="14.00">u1→CompressionKind</text>
<polygon fill="none" stroke="black" points="489.36,-73.8 489.36,-96.6 566.12,-96.6 566.12,-73.8 489.36,-73.8"/>
<text xml:space="preserve" text-anchor="start" x="492.36" y="-81" font-family="Times,serif" font-size="14.00">compression</text>
<polygon fill="none" stroke="black" points="276.52,-51 276.52,-73.8 301.97,-73.8 301.97,-51 276.52,-51"/>
<text xml:space="preserve" text-anchor="start" x="282.25" y="-58.2" font-family="Times,serif" font-size="14.00">10</text>
<polygon fill="none" stroke="black" points="301.97,-51 301.97,-73.8 356.97,-73.8 356.97,-51 301.97,-51"/>
<text xml:space="preserve" text-anchor="start" x="325.97" y="-58.2" font-family="Times,serif" font-size="14.00">4</text>
<polygon fill="none" stroke="black" points="356.97,-51 356.97,-73.8 489.36,-73.8 489.36,-51 356.97,-51"/>
<text xml:space="preserve" text-anchor="start" x="411.11" y="-58.2" font-family="Times,serif" font-size="14.00">u4le</text>
<polygon fill="none" stroke="black" points="489.36,-51 489.36,-73.8 566.12,-73.8 566.12,-51 489.36,-51"/>
<text xml:space="preserve" text-anchor="start" x="503.24" y="-58.2" font-family="Times,serif" font-size="14.00">len_blob</text>
<polygon fill="none" stroke="black" points="276.52,-28.2 276.52,-51 301.97,-51 301.97,-28.2 276.52,-28.2"/>
<text xml:space="preserve" text-anchor="start" x="282.25" y="-35.4" font-family="Times,serif" font-size="14.00">14</text>
<polygon fill="none" stroke="black" points="301.97,-28.2 301.97,-51 356.97,-51 356.97,-28.2 301.97,-28.2"/>
<text xml:space="preserve" text-anchor="start" x="304.97" y="-35.4" font-family="Times,serif" font-size="14.00">len_blob</text>
<polygon fill="none" stroke="black" points="356.97,-28.2 356.97,-51 489.36,-51 489.36,-28.2 356.97,-28.2"/>
<polygon fill="none" stroke="black" points="489.36,-28.2 489.36,-51 566.12,-51 566.12,-28.2 489.36,-28.2"/>
<text xml:space="preserve" text-anchor="start" x="515.29" y="-35.4" font-family="Times,serif" font-size="14.00">blob</text>
</g>
<!-- uls__seq&#45;&gt;chunk__seq -->
<g id="edge3" class="edge">
<title>uls__seq:chunks_type-&gt;chunk__seq</title>
<path fill="none" stroke="black" stroke-width="2" d="M225.52,-233.2C261.59,-233.2 296.31,-217.82 326.18,-197.85"/>
<polygon fill="black" stroke="black" stroke-width="2" points="326.6,-201.82 332.81,-193.24 322.6,-196.07 326.6,-201.82"/>
</g>
<!-- chunker__seq -->
<g id="node4" class="node">
<title>chunker__seq</title>
<polygon fill="#e0ffe0" stroke="none" points="334.67,-290.4 334.67,-313.2 360.12,-313.2 360.12,-290.4 334.67,-290.4"/>
<polygon fill="none" stroke="black" points="334.67,-290.4 334.67,-313.2 360.12,-313.2 360.12,-290.4 334.67,-290.4"/>
<text xml:space="preserve" text-anchor="start" x="337.67" y="-297.6" font-family="Times,serif" font-size="14.00">pos</text>
<polygon fill="#e0ffe0" stroke="none" points="360.12,-290.4 360.12,-313.2 387.88,-313.2 387.88,-290.4 360.12,-290.4"/>
<polygon fill="none" stroke="black" points="360.12,-290.4 360.12,-313.2 387.88,-313.2 387.88,-290.4 360.12,-290.4"/>
<text xml:space="preserve" text-anchor="start" x="363.12" y="-297.6" font-family="Times,serif" font-size="14.00">size</text>
<polygon fill="#e0ffe0" stroke="none" points="387.88,-290.4 387.88,-313.2 417.98,-313.2 417.98,-290.4 387.88,-290.4"/>
<polygon fill="none" stroke="black" points="387.88,-290.4 387.88,-313.2 417.98,-313.2 417.98,-290.4 387.88,-290.4"/>
<text xml:space="preserve" text-anchor="start" x="390.88" y="-297.6" font-family="Times,serif" font-size="14.00">type</text>
<polygon fill="#e0ffe0" stroke="none" points="417.98,-290.4 417.98,-313.2 507.98,-313.2 507.98,-290.4 417.98,-290.4"/>
<polygon fill="none" stroke="black" points="417.98,-290.4 417.98,-313.2 507.98,-313.2 507.98,-290.4 417.98,-290.4"/>
<text xml:space="preserve" text-anchor="start" x="457.54" y="-297.6" font-family="Times,serif" font-size="14.00">id</text>
<polygon fill="none" stroke="black" points="334.67,-267.6 334.67,-290.4 360.12,-290.4 360.12,-267.6 334.67,-267.6"/>
<text xml:space="preserve" text-anchor="start" x="343.89" y="-274.8" font-family="Times,serif" font-size="14.00">0</text>
<polygon fill="none" stroke="black" points="360.12,-267.6 360.12,-290.4 387.88,-290.4 387.88,-267.6 360.12,-267.6"/>
<text xml:space="preserve" text-anchor="start" x="370.5" y="-274.8" font-family="Times,serif" font-size="14.00">2</text>
<polygon fill="none" stroke="black" points="387.88,-267.6 387.88,-290.4 417.98,-290.4 417.98,-267.6 387.88,-267.6"/>
<text xml:space="preserve" text-anchor="start" x="390.88" y="-274.8" font-family="Times,serif" font-size="14.00">u2le</text>
<polygon fill="none" stroke="black" points="417.98,-267.6 417.98,-290.4 507.98,-290.4 507.98,-267.6 417.98,-267.6"/>
<text xml:space="preserve" text-anchor="start" x="429.54" y="-274.8" font-family="Times,serif" font-size="14.00">strip_length</text>
<polygon fill="none" stroke="black" points="334.67,-244.8 334.67,-267.6 360.12,-267.6 360.12,-244.8 334.67,-244.8"/>
<text xml:space="preserve" text-anchor="start" x="343.89" y="-252" font-family="Times,serif" font-size="14.00">2</text>
<polygon fill="none" stroke="black" points="360.12,-244.8 360.12,-267.6 387.88,-267.6 387.88,-244.8 360.12,-244.8"/>
<text xml:space="preserve" text-anchor="start" x="370.5" y="-252" font-family="Times,serif" font-size="14.00">2</text>
<polygon fill="none" stroke="black" points="387.88,-244.8 387.88,-267.6 417.98,-267.6 417.98,-244.8 387.88,-244.8"/>
<text xml:space="preserve" text-anchor="start" x="390.88" y="-252" font-family="Times,serif" font-size="14.00">u2le</text>
<polygon fill="none" stroke="black" points="417.98,-244.8 417.98,-267.6 507.98,-267.6 507.98,-244.8 417.98,-244.8"/>
<text xml:space="preserve" text-anchor="start" x="420.98" y="-252" font-family="Times,serif" font-size="14.00">strip_thickness</text>
</g>
<!-- uls__seq&#45;&gt;chunker__seq -->
<g id="edge2" class="edge">
<title>uls__seq:chunker_type-&gt;chunker__seq</title>
<path fill="none" stroke="black" stroke-width="2" d="M225.52,-278.8C254.63,-278.8 286.19,-278.82 315.26,-278.85"/>
<polygon fill="black" stroke="black" stroke-width="2" points="313.66,-282.35 323.66,-278.86 313.67,-275.35 313.66,-282.35"/>
</g>
<!-- player__seq -->
<g id="node5" class="node">
<title>player__seq</title>
<polygon fill="#e0ffe0" stroke="none" points="294.64,-483.6 294.64,-506.4 320.09,-506.4 320.09,-483.6 294.64,-483.6"/>
<polygon fill="none" stroke="black" points="294.64,-483.6 294.64,-506.4 320.09,-506.4 320.09,-483.6 294.64,-483.6"/>
<text xml:space="preserve" text-anchor="start" x="297.64" y="-490.8" font-family="Times,serif" font-size="14.00">pos</text>
<polygon fill="#e0ffe0" stroke="none" points="320.09,-483.6 320.09,-506.4 347.86,-506.4 347.86,-483.6 320.09,-483.6"/>
<polygon fill="none" stroke="black" points="320.09,-483.6 320.09,-506.4 347.86,-506.4 347.86,-483.6 320.09,-483.6"/>
<text xml:space="preserve" text-anchor="start" x="323.09" y="-490.8" font-family="Times,serif" font-size="14.00">size</text>
<polygon fill="#e0ffe0" stroke="none" points="347.86,-483.6 347.86,-506.4 429.26,-506.4 429.26,-483.6 347.86,-483.6"/>
<polygon fill="none" stroke="black" points="347.86,-483.6 347.86,-506.4 429.26,-506.4 429.26,-483.6 347.86,-483.6"/>
<text xml:space="preserve" text-anchor="start" x="376.51" y="-490.8" font-family="Times,serif" font-size="14.00">type</text>
<polygon fill="#e0ffe0" stroke="none" points="429.26,-483.6 429.26,-506.4 548,-506.4 548,-483.6 429.26,-483.6"/>
<polygon fill="none" stroke="black" points="429.26,-483.6 429.26,-506.4 548,-506.4 548,-483.6 429.26,-483.6"/>
<text xml:space="preserve" text-anchor="start" x="483.19" y="-490.8" font-family="Times,serif" font-size="14.00">id</text>
<polygon fill="none" stroke="black" points="294.64,-460.8 294.64,-483.6 320.09,-483.6 320.09,-460.8 294.64,-460.8"/>
<text xml:space="preserve" text-anchor="start" x="303.87" y="-468" font-family="Times,serif" font-size="14.00">0</text>
<polygon fill="none" stroke="black" points="320.09,-460.8 320.09,-483.6 347.86,-483.6 347.86,-460.8 320.09,-460.8"/>
<text xml:space="preserve" text-anchor="start" x="330.47" y="-468" font-family="Times,serif" font-size="14.00">8</text>
<polygon fill="none" stroke="black" points="347.86,-460.8 347.86,-483.6 429.26,-483.6 429.26,-460.8 347.86,-460.8"/>
<text xml:space="preserve" text-anchor="start" x="376.51" y="-468" font-family="Times,serif" font-size="14.00">u8le</text>
<polygon fill="none" stroke="black" points="429.26,-460.8 429.26,-483.6 548,-483.6 548,-460.8 429.26,-460.8"/>
<text xml:space="preserve" text-anchor="start" x="447.02" y="-468" font-family="Times,serif" font-size="14.00">spiral_position</text>
<polygon fill="none" stroke="black" points="294.64,-438 294.64,-460.8 320.09,-460.8 320.09,-438 294.64,-438"/>
<text xml:space="preserve" text-anchor="start" x="303.87" y="-445.2" font-family="Times,serif" font-size="14.00">8</text>
<polygon fill="none" stroke="black" points="320.09,-438 320.09,-460.8 347.86,-460.8 347.86,-438 320.09,-438"/>
<text xml:space="preserve" text-anchor="start" x="330.47" y="-445.2" font-family="Times,serif" font-size="14.00">8</text>
<polygon fill="none" stroke="black" points="347.86,-438 347.86,-460.8 429.26,-460.8 429.26,-438 347.86,-438"/>
<text xml:space="preserve" text-anchor="start" x="376.51" y="-445.2" font-family="Times,serif" font-size="14.00">u8le</text>
<polygon fill="none" stroke="black" points="429.26,-438 429.26,-460.8 548,-460.8 548,-438 429.26,-438"/>
<text xml:space="preserve" text-anchor="start" x="447.42" y="-445.2" font-family="Times,serif" font-size="14.00">enemies_mask</text>
<polygon fill="none" stroke="black" points="294.64,-415.2 294.64,-438 320.09,-438 320.09,-415.2 294.64,-415.2"/>
<text xml:space="preserve" text-anchor="start" x="300.37" y="-422.4" font-family="Times,serif" font-size="14.00">16</text>
<polygon fill="none" stroke="black" points="320.09,-415.2 320.09,-438 347.86,-438 347.86,-415.2 320.09,-415.2"/>
<text xml:space="preserve" text-anchor="start" x="330.47" y="-422.4" font-family="Times,serif" font-size="14.00">1</text>
<polygon fill="none" stroke="black" points="347.86,-415.2 347.86,-438 429.26,-438 429.26,-415.2 347.86,-415.2"/>
<text xml:space="preserve" text-anchor="start" x="381.56" y="-422.4" font-family="Times,serif" font-size="14.00">u1</text>
<polygon fill="none" stroke="black" points="429.26,-415.2 429.26,-438 548,-438 548,-415.2 429.26,-415.2"/>
<text xml:space="preserve" text-anchor="start" x="432.26" y="-422.4" font-family="Times,serif" font-size="14.00">num_attack_vectors</text>
<polygon fill="none" stroke="black" points="294.64,-392.4 294.64,-415.2 320.09,-415.2 320.09,-392.4 294.64,-392.4"/>
<text xml:space="preserve" text-anchor="start" x="300.37" y="-399.6" font-family="Times,serif" font-size="14.00">17</text>
<polygon fill="none" stroke="black" points="320.09,-392.4 320.09,-415.2 347.86,-415.2 347.86,-392.4 320.09,-392.4"/>
<text xml:space="preserve" text-anchor="start" x="330.47" y="-399.6" font-family="Times,serif" font-size="14.00">2</text>
<polygon fill="none" stroke="black" points="347.86,-392.4 347.86,-415.2 429.26,-415.2 429.26,-392.4 347.86,-392.4"/>
<text xml:space="preserve" text-anchor="start" x="350.86" y="-399.6" font-family="Times,serif" font-size="14.00">AttackVector</text>
<polygon fill="none" stroke="black" points="429.26,-392.4 429.26,-415.2 548,-415.2 548,-392.4 429.26,-392.4"/>
<text xml:space="preserve" text-anchor="start" x="448.21" y="-399.6" font-family="Times,serif" font-size="14.00">attack_vectors</text>
<polygon fill="none" stroke="black" points="294.64,-369.6 294.64,-392.4 548,-392.4 548,-369.6 294.64,-369.6"/>
<text xml:space="preserve" text-anchor="start" x="329.19" y="-376.8" font-family="Times,serif" font-size="14.00">repeat num_attack_vectors times</text>
</g>
<!-- uls__seq&#45;&gt;player__seq -->
<g id="edge1" class="edge">
<title>uls__seq:players_type-&gt;player__seq</title>
<path fill="none" stroke="black" stroke-width="2" d="M225.52,-324.4C245.9,-324.4 243.63,-342.62 260.52,-354 265.94,-357.65 271.52,-361.26 277.22,-364.81"/>
<polygon fill="black" stroke="black" stroke-width="2" points="273.97,-366.92 284.33,-369.15 277.63,-360.95 273.97,-366.92"/>
</g>
<!-- attack_vector__seq -->
<g id="node2" class="node">
<title>attack_vector__seq</title>
<polygon fill="#e0ffe0" stroke="none" points="618.12,-415.4 618.12,-438.2 643.57,-438.2 643.57,-415.4 618.12,-415.4"/>
<polygon fill="none" stroke="black" points="618.12,-415.4 618.12,-438.2 643.57,-438.2 643.57,-415.4 618.12,-415.4"/>
<text xml:space="preserve" text-anchor="start" x="621.12" y="-422.6" font-family="Times,serif" font-size="14.00">pos</text>
<polygon fill="#e0ffe0" stroke="none" points="643.57,-415.4 643.57,-438.2 671.33,-438.2 671.33,-415.4 643.57,-415.4"/>
<polygon fill="none" stroke="black" points="643.57,-415.4 643.57,-438.2 671.33,-438.2 671.33,-415.4 643.57,-415.4"/>
<text xml:space="preserve" text-anchor="start" x="646.57" y="-422.6" font-family="Times,serif" font-size="14.00">size</text>
<polygon fill="#e0ffe0" stroke="none" points="671.33,-415.4 671.33,-438.2 701.44,-438.2 701.44,-415.4 671.33,-415.4"/>
<polygon fill="none" stroke="black" points="671.33,-415.4 671.33,-438.2 701.44,-438.2 701.44,-415.4 671.33,-415.4"/>
<text xml:space="preserve" text-anchor="start" x="674.33" y="-422.6" font-family="Times,serif" font-size="14.00">type</text>
<polygon fill="#e0ffe0" stroke="none" points="701.44,-415.4 701.44,-438.2 718.33,-438.2 718.33,-415.4 701.44,-415.4"/>
<polygon fill="none" stroke="black" points="701.44,-415.4 701.44,-438.2 718.33,-438.2 718.33,-415.4 701.44,-415.4"/>
<text xml:space="preserve" text-anchor="start" x="704.44" y="-422.6" font-family="Times,serif" font-size="14.00">id</text>
<polygon fill="none" stroke="black" points="618.12,-392.6 618.12,-415.4 643.57,-415.4 643.57,-392.6 618.12,-392.6"/>
<text xml:space="preserve" text-anchor="start" x="627.35" y="-399.8" font-family="Times,serif" font-size="14.00">0</text>
<polygon fill="none" stroke="black" points="643.57,-392.6 643.57,-415.4 671.33,-415.4 671.33,-392.6 643.57,-392.6"/>
<text xml:space="preserve" text-anchor="start" x="653.95" y="-399.8" font-family="Times,serif" font-size="14.00">1</text>
<polygon fill="none" stroke="black" points="671.33,-392.6 671.33,-415.4 701.44,-415.4 701.44,-392.6 671.33,-392.6"/>
<text xml:space="preserve" text-anchor="start" x="680.16" y="-399.8" font-family="Times,serif" font-size="14.00">s1</text>
<polygon fill="none" stroke="black" points="701.44,-392.6 701.44,-415.4 718.33,-415.4 718.33,-392.6 701.44,-392.6"/>
<text xml:space="preserve" text-anchor="start" x="706.38" y="-399.8" font-family="Times,serif" font-size="14.00">x</text>
<polygon fill="none" stroke="black" points="618.12,-369.8 618.12,-392.6 643.57,-392.6 643.57,-369.8 618.12,-369.8"/>
<text xml:space="preserve" text-anchor="start" x="627.35" y="-377" font-family="Times,serif" font-size="14.00">1</text>
<polygon fill="none" stroke="black" points="643.57,-369.8 643.57,-392.6 671.33,-392.6 671.33,-369.8 643.57,-369.8"/>
<text xml:space="preserve" text-anchor="start" x="653.95" y="-377" font-family="Times,serif" font-size="14.00">1</text>
<polygon fill="none" stroke="black" points="671.33,-369.8 671.33,-392.6 701.44,-392.6 701.44,-369.8 671.33,-369.8"/>
<text xml:space="preserve" text-anchor="start" x="680.16" y="-377" font-family="Times,serif" font-size="14.00">s1</text>
<polygon fill="none" stroke="black" points="701.44,-369.8 701.44,-392.6 718.33,-392.6 718.33,-369.8 701.44,-369.8"/>
<text xml:space="preserve" text-anchor="start" x="706.38" y="-377" font-family="Times,serif" font-size="14.00">y</text>
</g>
<!-- player__seq&#45;&gt;attack_vector__seq -->
<g id="edge4" class="edge">
<title>player__seq:attack_vectors_type-&gt;attack_vector__seq</title>
<path fill="none" stroke="black" stroke-width="2" d="M549,-403.8C565.26,-403.8 582.78,-403.82 599.22,-403.85"/>
<polygon fill="black" stroke="black" stroke-width="2" points="597.37,-407.34 607.37,-403.86 597.38,-400.34 597.37,-407.34"/>
</g>
</g>
</svg>